<svg width="34" height="34" viewBox="0 0 34 34" fill="none" xmlns="http://www.w3.org/2000/svg">
    <path d="M30 14V24.3333C30 27.4629 27.4629 30 24.3333 30H9.66667C6.53705 30 4 27.4629 4 24.3333V9.66667C4 6.53705 6.53705 4 9.66667 4H19" stroke="#123968" stroke-width="2.125" stroke-linecap="round"/>
    <path d="M27.7695 2.70711C28.16 2.31658 28.7931 2.31658 29.1837 2.70711L30.8489 4.37234C31.2394 4.76286 31.2394 5.39603 30.8489 5.78655L19.3253 17.3102C19.2675 17.368 19.2028 17.4185 19.1327 17.4606L14.9696 19.9584C14.0769 20.494 13.062 19.4791 13.5976 18.5864L16.0954 14.4233C16.1375 14.3532 16.188 14.2885 16.2458 14.2307L27.7695 2.70711Z" fill="#123968"/>
    </svg>
    