<svg width="17" height="16" viewBox="0 0 17 16" fill="none" xmlns="http://www.w3.org/2000/svg">
    <path d="M6.62412 1.23748C7.15222 -0.387848 9.45162 -0.387847 9.97973 1.23748L10.6784 3.38771C10.9146 4.11458 11.5919 4.60671 12.3562 4.60671H14.6171C16.326 4.60671 17.0366 6.79357 15.654 7.79808L13.8249 9.127C13.2066 9.57623 12.9479 10.3725 13.184 11.0994L13.8827 13.2496C14.4108 14.8749 12.5505 16.2265 11.168 15.222L9.33886 13.8931C8.72055 13.4438 7.88329 13.4438 7.26498 13.8931L5.43589 15.222C4.0533 16.2265 2.19304 14.8749 2.72114 13.2496L3.41979 11.0994C3.65597 10.3725 3.39724 9.57623 2.77893 9.127L0.949835 7.79808C-0.432752 6.79357 0.277803 4.60671 1.98678 4.60671H4.24766C5.01194 4.60671 5.68929 4.11458 5.92547 3.38771L6.62412 1.23748Z" fill="#FF8A00"/>
    </svg>
    